<svg width="26" height="22" viewBox="0 0 26 22" fill="none" xmlns="http://www.w3.org/2000/svg">
<path d="M23.5 4.25H3.5C3.16848 4.25 2.85054 4.1183 2.61612 3.88388C2.3817 3.64946 2.25 3.33152 2.25 3C2.25 2.66848 2.3817 2.35054 2.61612 2.11612C2.85054 1.8817 3.16848 1.75 3.5 1.75H20.5C20.6989 1.75 20.8897 1.67098 21.0303 1.53033C21.171 1.38968 21.25 1.19891 21.25 1C21.25 0.801088 21.171 0.610322 21.0303 0.46967C20.8897 0.329018 20.6989 0.25 20.5 0.25H3.5C2.77065 0.25 2.07118 0.539731 1.55546 1.05546C1.03973 1.57118 0.75 2.27065 0.75 3V19C0.75 19.7293 1.03973 20.4288 1.55546 20.9445C2.07118 21.4603 2.77065 21.75 3.5 21.75H23.5C23.9641 21.75 24.4092 21.5656 24.7374 21.2374C25.0656 20.9092 25.25 20.4641 25.25 20V6C25.25 5.53587 25.0656 5.09075 24.7374 4.76256C24.4092 4.43437 23.9641 4.25 23.5 4.25ZM23.75 20C23.75 20.0663 23.7237 20.1299 23.6768 20.1768C23.6299 20.2237 23.5663 20.25 23.5 20.25H3.5C3.16848 20.25 2.85054 20.1183 2.61612 19.8839C2.3817 19.6495 2.25 19.3315 2.25 19V5.44875C2.63674 5.64726 3.06529 5.75054 3.5 5.75H23.5C23.5663 5.75 23.6299 5.77634 23.6768 5.82322C23.7237 5.87011 23.75 5.9337 23.75 6V20ZM20.25 12.5C20.25 12.7472 20.1767 12.9889 20.0393 13.1945C19.902 13.4 19.7068 13.5602 19.4784 13.6549C19.2499 13.7495 18.9986 13.7742 18.7561 13.726C18.5137 13.6777 18.2909 13.5587 18.1161 13.3839C17.9413 13.2091 17.8223 12.9863 17.774 12.7439C17.7258 12.5014 17.7505 12.2501 17.8451 12.0216C17.9398 11.7932 18.1 11.598 18.3055 11.4607C18.5111 11.3233 18.7528 11.25 19 11.25C19.3315 11.25 19.6495 11.3817 19.8839 11.6161C20.1183 11.8505 20.25 12.1685 20.25 12.5Z" fill="black" fill-opacity="0.6"/>
</svg>
