<svg width="20" height="26" viewBox="0 0 20 26" fill="none" xmlns="http://www.w3.org/2000/svg">
<path d="M13.7367 25.3787L13.3923 25.8959C13.4859 25.9582 13.5947 25.9939 13.707 25.9993C13.8193 26.0047 13.9309 25.9795 14.0301 25.9264C14.1292 25.8733 14.2121 25.7944 14.2699 25.6979C14.3277 25.6015 14.3582 25.4912 14.3583 25.3787H13.7367ZM10.007 22.8923L10.3514 22.3751C10.2494 22.3072 10.1296 22.271 10.007 22.271C9.8845 22.271 9.76469 22.3072 9.66267 22.3751L10.007 22.8923ZM6.27741 25.3787H5.65581C5.65587 25.4912 5.68642 25.6015 5.74422 25.6979C5.80202 25.7944 5.88489 25.8733 5.98402 25.9264C6.08314 25.9795 6.19481 26.0047 6.30712 25.9993C6.41943 25.9939 6.52818 25.9582 6.62178 25.8959L6.27741 25.3787ZM8.06142 1.55884L7.58776 1.15604L8.06018 1.55884H8.06142ZM2.28671 11.1104L1.88392 11.5841L2.28671 11.1117V11.1104ZM2.28671 7.3236L1.88392 6.84993L2.28671 7.32235V7.3236ZM11.9004 16.9373L12.3741 17.3401L11.9017 16.9373H11.9004ZM8.11363 16.9373L7.63997 17.3401L8.11239 16.9373H8.11363ZM17.6652 11.1626L18.068 11.6363L17.6652 11.1639V11.1626ZM17.7274 7.3236L18.1302 6.84993L17.7274 7.32235V7.3236ZM11.9527 1.55884L12.4263 1.15604L11.9539 1.55884H11.9527ZM14.081 24.8615L10.3514 22.3751L9.66267 23.4095L13.3923 25.8959L14.081 24.8615ZM9.66267 22.3751L5.93305 24.8615L6.62178 25.8959L10.3514 23.4095L9.66267 22.3751ZM11.428 1.89948L11.4802 1.96164L12.4263 1.15604L12.3741 1.09388L11.428 1.89948ZM14.096 3.04571L14.1768 3.03826L14.0773 1.80002L13.9965 1.80624L14.096 3.04571ZM16.1845 5.04728L16.1796 5.12809L17.4178 5.22755L17.424 5.14674L16.1845 5.04728ZM17.2624 7.7438L17.3246 7.79726L18.1302 6.84993L18.068 6.79772L17.2624 7.7438ZM17.3246 10.638L17.2624 10.6902L18.068 11.6363L18.1302 11.5841L17.3246 10.638ZM16.1796 13.3059L16.1858 13.3867L17.424 13.2873L17.4178 13.2065L16.1796 13.3059ZM14.178 15.3945L14.096 15.3883L13.9965 16.6278L14.0773 16.634L14.1768 15.3958L14.178 15.3945ZM11.4802 16.4724L11.4268 16.5345L12.3741 17.3401L12.4263 17.278L11.4802 16.4724ZM8.5873 16.5345L8.53384 16.4724L7.58776 17.278L7.63997 17.3401L8.5873 16.5345ZM5.91813 15.3895L5.83732 15.3958L5.93678 16.634L6.01758 16.6278L5.91813 15.3883V15.3895ZM3.82954 13.388L3.83575 13.3059L2.59627 13.2065L2.59006 13.2873L3.82829 13.3867L3.82954 13.388ZM2.75168 10.6902L2.68951 10.6367L1.88392 11.5841L1.94608 11.6363L2.75168 10.6902ZM2.68951 7.79726L2.75168 7.7438L1.94608 6.79772L1.88392 6.84993L2.68951 7.79726ZM3.83575 5.12809L3.82829 5.04728L2.59006 5.14674L2.59627 5.22755L3.83575 5.12809ZM5.83732 3.0395L5.91813 3.04571L6.01758 1.80624L5.93678 1.80002L5.83732 3.0395ZM8.53508 1.96164L8.58605 1.89948L7.63997 1.09388L7.58776 1.15604L8.53384 1.96164H8.53508ZM5.91813 3.04571C6.40902 3.08528 6.90229 3.00762 7.35729 2.81914C7.81228 2.63065 8.21597 2.33675 8.53508 1.96164L7.58776 1.15604C7.39626 1.38106 7.15404 1.55736 6.88104 1.6704C6.60805 1.78345 6.3121 1.83 6.01758 1.80624L5.91813 3.04571ZM3.82829 5.04728C3.80656 4.77815 3.84478 4.50751 3.9379 4.25407C4.03102 4.00063 4.17806 3.77044 4.36886 3.5794C4.55967 3.38836 4.78968 3.24103 5.043 3.1476C5.29633 3.05417 5.56692 3.01686 5.83608 3.03826L5.93678 1.80002C5.48813 1.76401 5.03578 1.82587 4.6134 1.98133C4.19101 2.13678 3.80743 2.38212 3.48917 2.70037C3.17091 3.01863 2.92558 3.40221 2.77012 3.8246C2.61467 4.24699 2.55405 4.6981 2.59006 5.14674L3.82705 5.04728H3.82829ZM2.75168 7.7438C3.12679 7.42468 3.42069 7.02224 3.60917 6.56725C3.79766 6.11225 3.87532 5.61898 3.83575 5.12809L2.59627 5.22755C2.62004 5.52206 2.57348 5.81801 2.46044 6.09101C2.34739 6.364 2.1711 6.60622 1.94608 6.79772L2.75168 7.7438ZM2.68951 10.6367C2.48395 10.4617 2.31885 10.2441 2.20563 9.99893C2.09241 9.75381 2.03377 9.48701 2.03377 9.217C2.03377 8.94699 2.09241 8.6802 2.20563 8.43507C2.31885 8.18994 2.48395 7.97232 2.68951 7.79726L1.88392 6.84993C1.54102 7.14171 1.2656 7.5045 1.07673 7.9132C0.887859 8.32191 0.790039 8.76677 0.790039 9.217C0.790039 9.66724 0.887859 10.1121 1.07673 10.5208C1.2656 10.9295 1.54102 11.2923 1.88392 11.5841L2.68951 10.6367ZM3.83575 13.3059C3.87511 12.8152 3.79736 12.3222 3.60888 11.8674C3.42041 11.4127 3.12661 11.0092 2.75168 10.6902L1.94608 11.6363C2.1711 11.8278 2.34739 12.07 2.46044 12.343C2.57348 12.616 2.62004 12.9119 2.59627 13.2065L3.83575 13.3059ZM5.83732 15.3945C5.56808 15.4163 5.29732 15.3793 5.04379 15.2861C4.79025 15.1929 4.55999 15.0457 4.36893 14.8548C4.17787 14.6638 4.03057 14.4337 3.93722 14.1802C3.84387 13.9267 3.80671 13.656 3.82829 13.3867L2.59006 13.2873C2.55386 13.736 2.61558 14.1873 2.77095 14.6098C2.92632 15.0323 3.17163 15.4161 3.4899 15.7345C3.80818 16.0529 4.19183 16.2983 4.61432 16.4538C5.0368 16.6094 5.48802 16.6713 5.93678 16.6352L5.83732 15.3958V15.3945ZM11.4268 16.5345C11.2517 16.7401 11.0341 16.9052 10.789 17.0184C10.5438 17.1316 10.2771 17.1903 10.007 17.1903C9.73703 17.1903 9.47024 17.1316 9.22511 17.0184C8.97998 16.9052 8.76236 16.7401 8.5873 16.5345L7.63997 17.3401C7.93175 17.683 8.29454 17.9584 8.70324 18.1473C9.11195 18.3362 9.55681 18.434 10.007 18.434C10.4573 18.434 10.9021 18.3362 11.3108 18.1473C11.7195 17.9584 12.0823 17.683 12.3741 17.3401L11.4268 16.5345ZM16.1858 13.3867C16.2076 13.6561 16.1705 13.9269 16.0773 14.1806C15.984 14.4342 15.8367 14.6645 15.6457 14.8556C15.4546 15.0467 15.2242 15.194 14.9706 15.2872C14.717 15.3805 14.4461 15.4175 14.1768 15.3958L14.0773 16.634C14.526 16.6702 14.9773 16.6085 15.3998 16.4531C15.8224 16.2977 16.2061 16.0524 16.5245 15.7341C16.8429 15.4159 17.0884 15.0322 17.2439 14.6097C17.3994 14.1872 17.4601 13.736 17.424 13.2873L16.1858 13.3867ZM17.2624 10.689C16.8875 11.0082 16.5939 11.4119 16.4056 11.8669C16.2173 12.3219 16.1399 12.8151 16.1796 13.3059L17.4178 13.2065C17.394 12.9119 17.4406 12.616 17.5536 12.343C17.6667 12.07 17.843 11.8278 18.068 11.6363L17.2624 10.6902V10.689ZM17.3246 7.79726C17.5301 7.97232 17.6952 8.18994 17.8085 8.43507C17.9217 8.6802 17.9803 8.94699 17.9803 9.217C17.9803 9.48701 17.9217 9.75381 17.8085 9.99893C17.6952 10.2441 17.5301 10.4629 17.3246 10.638L18.1302 11.5841C18.4731 11.2923 18.7485 10.9295 18.9374 10.5208C19.1262 10.1121 19.224 9.66724 19.224 9.217C19.224 8.76677 19.1262 8.32191 18.9374 7.9132C18.7485 7.5045 18.4731 7.14171 18.1302 6.84993L17.3246 7.79726ZM16.1796 5.12809C16.1401 5.61868 16.2176 6.11164 16.4059 6.56639C16.5941 7.02114 16.8877 7.42469 17.2624 7.7438L18.068 6.79772C17.843 6.60622 17.6667 6.364 17.5536 6.09101C17.4406 5.81801 17.394 5.52206 17.4178 5.22755L16.1796 5.12809ZM14.178 3.0395C14.4471 3.01794 14.7178 3.05508 14.9711 3.14835C15.2245 3.24163 15.4546 3.38881 15.6456 3.57973C15.8365 3.77066 15.9837 4.00076 16.0769 4.25414C16.1702 4.50752 16.2061 4.77814 16.1845 5.04728L17.424 5.14674C17.4601 4.69798 17.3994 4.24676 17.2439 3.82428C17.0884 3.4018 16.8429 3.01815 16.5245 2.69987C16.2061 2.38159 15.8224 2.13628 15.3998 1.98091C14.9773 1.82554 14.526 1.76382 14.0773 1.80002L14.1768 3.03826L14.178 3.0395ZM11.4802 1.96164C11.7992 2.33657 12.2027 2.63037 12.6575 2.81884C13.1122 3.00732 13.6053 3.08507 14.096 3.04571L13.9965 1.80624C13.702 1.83 13.406 1.78345 13.133 1.6704C12.86 1.55736 12.6178 1.38106 12.4263 1.15604L11.4802 1.96164ZM12.3741 1.09388C12.0823 0.750977 11.7195 0.475563 11.3108 0.286692C10.9021 0.0978201 10.4573 0 10.007 0C9.55681 0 9.11195 0.0978201 8.70324 0.286692C8.29454 0.475563 7.93175 0.750977 7.63997 1.09388L8.58605 1.89948C8.76112 1.69391 8.97998 1.52881 9.22511 1.41559C9.47024 1.30237 9.73703 1.24373 10.007 1.24373C10.2771 1.24373 10.5438 1.30237 10.789 1.41559C11.0341 1.52881 11.253 1.69391 11.428 1.89948L12.3741 1.09388ZM8.53508 16.4724C8.2582 16.1471 7.91725 15.8825 7.53351 15.6949C7.14977 15.5073 6.73149 15.3996 6.30477 15.3808L6.25006 16.624C6.50599 16.6353 6.75686 16.6992 6.98701 16.8117C7.21716 16.9242 7.42166 17.0829 7.58776 17.278L8.53384 16.4724H8.53508ZM6.30477 15.3808C6.17588 15.3749 6.04675 15.3782 5.91813 15.3883L6.01758 16.6278C6.09591 16.6216 6.17299 16.6203 6.25006 16.624L6.30477 15.3808ZM6.89902 25.3787V16.0024H5.65581V25.3787H6.89902ZM14.0972 15.3883C13.9682 15.3781 13.8386 15.376 13.7093 15.3821L13.764 16.624C13.8411 16.6203 13.9182 16.6216 13.9965 16.6278L14.096 15.3883H14.0972ZM13.7093 15.3821C13.2828 15.401 12.8648 15.5075 12.4813 15.6951C12.0977 15.8827 11.757 16.1473 11.4802 16.4724L12.4263 17.278C12.5924 17.0829 12.7969 16.9242 13.0271 16.8117C13.2572 16.6992 13.5081 16.6353 13.764 16.624L13.7093 15.3821ZM13.1151 16.0037V25.3787H14.3583V16.0024L13.1151 16.0037Z" fill="black" fill-opacity="0.6"/>
<path d="M12.4933 7.97363L8.76372 11.7033L7.52051 10.4601" stroke="black" stroke-opacity="0.6" stroke-linecap="round" stroke-linejoin="round"/>
</svg>
