<svg width="22" height="28" viewBox="0 0 22 28" fill="none" xmlns="http://www.w3.org/2000/svg">
<path d="M7.51984 2.33333V1H14.4932V2.33333H7.51984ZM10.3398 17.1533H11.6732V10.18H10.3398V17.1533ZM11.0065 27C9.53273 27 8.14918 26.7218 6.85584 26.1653C5.5634 25.6089 4.43229 24.8462 3.46251 23.8773C2.49362 22.9084 1.73095 21.7773 1.17451 20.484C0.618066 19.1907 0.339844 17.8071 0.339844 16.3333C0.339844 14.8596 0.618066 13.476 1.17451 12.1827C1.73095 10.8902 2.49362 9.75911 3.46251 8.78933C4.4314 7.82044 5.56295 7.05778 6.85718 6.50133C8.14962 5.94489 9.53273 5.66667 11.0065 5.66667C12.299 5.66667 13.5487 5.89778 14.7558 6.36C15.9621 6.82044 17.0696 7.47289 18.0785 8.31733L19.5345 6.86133L20.4785 7.80533L19.0225 9.26133C19.867 10.2702 20.5198 11.3778 20.9812 12.584C21.4425 13.7911 21.6732 15.0409 21.6732 16.3333C21.6732 17.8071 21.395 19.1907 20.8385 20.484C20.2821 21.7764 19.5194 22.9076 18.5505 23.8773C17.5816 24.8462 16.4505 25.6089 15.1572 26.1653C13.8638 26.7218 12.4803 27 11.0065 27ZM11.0065 25.6667C13.5843 25.6667 15.7843 24.7556 17.6065 22.9333C19.4287 21.1111 20.3398 18.9111 20.3398 16.3333C20.3398 13.7556 19.4287 11.5556 17.6065 9.73333C15.7843 7.91111 13.5843 7 11.0065 7C8.42873 7 6.22873 7.91111 4.40651 9.73333C2.58429 11.5556 1.67318 13.7556 1.67318 16.3333C1.67318 18.9111 2.58429 21.1111 4.40651 22.9333C6.22873 24.7556 8.42873 25.6667 11.0065 25.6667Z" fill="black" fill-opacity="0.6" stroke="black" stroke-opacity="0.6" stroke-width="0.25" stroke-linejoin="round"/>
</svg>
