<svg width="16" height="15" viewBox="0 0 16 15" fill="none" xmlns="http://www.w3.org/2000/svg">
<path d="M2.16667 15C1.70833 15 1.31611 14.8369 0.99 14.5108C0.663889 14.1847 0.500556 13.7922 0.5 13.3333V1.66667C0.5 1.20833 0.663333 0.816111 0.99 0.49C1.31667 0.163889 1.70889 0.000555556 2.16667 0H13.8333C14.2917 0 14.6842 0.163333 15.0108 0.49C15.3375 0.816667 15.5006 1.20889 15.5 1.66667V13.3333C15.5 13.7917 15.3369 14.1842 15.0108 14.5108C14.6847 14.8375 14.2922 15.0006 13.8333 15H2.16667ZM2.16667 13.3333H13.8333V1.66667H2.16667V13.3333Z" fill="black" fill-opacity="0.8"/>
</svg>
