<?xml version="1.0"?>
<svg width="180" height="35" xmlns="http://www.w3.org/2000/svg" xmlns:svg="http://www.w3.org/2000/svg" preserveAspectRatio="xMidYMid meet" style="vector-effect: non-scaling-stroke;">
 <metadata>Created by potrace 1.15, written by Peter Selinger 2001-2017</metadata>
 <g class="layer">
  <title>Layer 1</title>
  <polygon cx="289.5" cy="485.5" fill="#ff7f00" id="svg_3" orient="point" point="5" r="0" r2="0" shape="star" strokeWidth="null" strokecolor="none"/>
  <polygon cx="599.5" cy="486.5" fill="#ff7f00" id="svg_4" orient="point" point="5" points="695.2305310165975,500.6347657063088 698.8449664721265,511.47680600014064 709.8508911132812,511.71066848628834 701.0786499985261,518.6453412536939 704.2664317298331,529.6318969726562 695.2305310165975,523.0756021165289 686.1945676614996,529.6318969726562 689.382412034669,518.6453412536939 680.6101082780515,511.71066848628834 691.6160955610685,511.47680600014064 695.2305310165975,500.6347657063088 698.8449664721265,511.47680600014064 " r="118.526134" r2="47.410454" shape="star" stroke="#ff7f00" stroke-width="null" strokeWidth="null" strokecolor="none"/>
  <polygon cx="662.5" cy="423.5" fill="#bfbfbf" id="svg_6" orient="point" point="5" r="0" r2="0" shape="star" strokeWidth="null" strokecolor="none"/>
  <polygon cx="662.5" cy="423.5" fill="#bfbfbf" id="svg_7" orient="point" point="5" points="662.5,422.8333333333333 662.6567427339446,423.28426213483334 663.13403767753,423.2939886704167 662.7536150710121,423.58240453183333 662.8918568348616,424.0393446629166 662.5,423.76666666666665 662.1081431651384,424.0393446629166 662.2463849289879,423.58240453183333 661.8659623224698,423.2939886704167 662.3432572660554,423.28426213483334 662.5,422.8333333333333 662.6567427339446,423.28426213483334 " r="0.666667" r2="0.266667" shape="star" stroke-width="null" strokeWidth="null" strokecolor="none"/>
  <polygon cx="667.5" cy="432.5" fill="#bfbfbf" id="svg_8" orient="point" point="5" r="0" r2="0" shape="star" strokeWidth="null" strokecolor="none"/>
  <polygon cx="664.5" cy="426.5" fill="#bfbfbf" id="svg_9" orient="point" point="5" r="0" r2="0" shape="star" strokeWidth="null" strokecolor="none"/>
  <polygon cx="633.5" cy="446.5" fill="#bfbfbf" id="svg_10" orient="point" point="5" r="0" r2="0" shape="star" strokeWidth="null" strokecolor="none"/>
  <polygon cx="633.5" cy="446.5" fill="#bfbfbf" id="svg_11" orient="point" point="5" r="0" r2="0" shape="star" strokeWidth="null" strokecolor="none"/>
  <polygon cx="633.5" cy="446.5" fill="#bfbfbf" id="svg_12" orient="point" point="5" r="0" r2="0" shape="star" strokeWidth="null" strokecolor="none"/>
  <polygon cx="633.5" cy="446.5" fill="#bfbfbf" id="svg_13" orient="point" point="5" r="0" r2="0" shape="star" strokeWidth="null" strokecolor="none"/>
  <polygon cx="599.5" cy="486.5" fill="#ff7f00" id="svg_14" orient="point" point="5" points="735.0000610914358,500.2514330569902 738.6145209564274,511.2804560223012 749.620361328125,511.5182515089109 740.8481565615148,518.5725818987557 744.0359337272021,529.74853515625 735.0000610914358,523.0792720269674 725.9640037711943,529.74853515625 729.1519656213568,518.5725818987557 720.3796377317631,511.5182515089109 731.3855396649524,511.2804560223012 735.0000610914358,500.2514330569902 738.6145209564274,511.2804560223012 " r="118.526134" r2="47.410454" shape="star" stroke="#ff7f00" stroke-width="null" strokeWidth="null" strokecolor="none"/>
  <polygon cx="599.5" cy="486.5" fill="#ffffff" id="svg_17" orient="point" point="5" points="775.2500655797485,500.7514343261719 778.9263206277974,511.5935059478652 790.1203604263719,511.8272744504284 781.1981703122729,518.7619785456955 784.4404720926832,529.7485342646578 775.2500655797485,523.1923647199765 766.0595270055637,529.7485342646578 769.3019608472241,518.7619785456955 760.379638671875,511.8272744504284 771.5737445010745,511.5935059478652 775.2500655797485,500.7514343261719 778.9263206277974,511.5935059478652 " r="118.526134" r2="47.410454" shape="star" stroke="#ff7f00" stroke-width="null" strokeWidth="null" strokecolor="none"/>
  <polygon cx="599.5" cy="486.5" fill="#ff7f00" id="svg_18" orient="point" point="5" points="19.35006445646286,1.951434314250946 23.125172793865204,12.251347362995148 34.62036436796188,12.473423779010773 25.458169162273407,19.061348736286163 28.787640750408173,29.498532116413116 19.35006445646286,23.27021676301956 9.9123575091362,29.498532116413116 13.241958796977997,19.061348736286163 4.079637229442596,12.473423779010773 15.574891269207,12.251347362995148 19.35006445646286,1.951434314250946 23.125172793865204,12.251347362995148 " r="118.526134" r2="47.410454" shape="star" stroke="#ff7f00" stroke-width="null" strokeWidth="null" strokecolor="none"/>
  <polygon cx="599.5" cy="486.5" fill="#ff7f00" id="svg_19" orient="point" point="5" points="655.00006666423,500.7514344650772 658.6145114917163,511.3130800628278 669.6203611738747,511.5408035282744 660.8481444232748,518.2961480819504 664.0359117675252,528.99853515625 655.00006666423,522.6119326553307 645.9640213368693,528.99853515625 649.1519889051851,518.2961480819504 640.379638671875,511.5408035282744 651.3855550953886,511.3130800628278 655.00006666423,500.7514344650772 658.6145114917163,511.3130800628278 " r="118.526134" r2="47.410454" shape="star" stroke="#ff7f00" stroke-width="null" strokeWidth="null" strokecolor="none"/>
  <polygon cx="599.5" cy="486.5" fill="#ff7f00" id="svg_20" orient="point" point="5" points="53.40006713569164,1.9264501631259918 57.17517547309399,12.226364523172379 68.6703689545393,12.44843903183937 59.50817184150219,19.03636398911476 62.83763961493969,29.473547369241714 53.40006713569164,23.245233923196793 43.96235732734203,29.473547369241714 47.29195861518383,19.03636398911476 38.12963943183422,12.44843903183937 49.62489013373852,12.226364523172379 53.40006713569164,1.9264501631259918 57.17517547309399,12.226364523172379 " r="118.526134" r2="47.410454" shape="star" stroke="#ff7f00" stroke-width="null" strokeWidth="null" strokecolor="none"/>
  <polygon cx="599.5" cy="486.5" fill="#ff7f00" id="svg_21" orient="point" point="5" points="87.70006713271141,1.9264512062072754 91.47517547011375,12.226364135742188 102.97036895155907,12.448440551757812 93.80817565321922,19.036365509033203 97.13763579726219,29.473546981811523 87.70006713271141,23.2452335357666 78.26235350966454,29.473546981811523 81.5919586122036,19.036365509033203 72.42963561415672,12.448440551757812 83.92489013075829,12.226364135742188 87.70006713271141,1.9264512062072754 91.47517547011375,12.226364135742188 " r="118.526134" r2="47.410454" shape="star" stroke="#ff7f00" stroke-width="null" strokeWidth="null" strokecolor="none"/>
  <polygon cx="599.5" cy="486.5" fill="#ff7f00" id="svg_22" orient="point" point="5" points="121.70006561279297,2.0264511108398438 125.47517395019531,12.326364517211914 136.97036743164062,12.548440933227539 127.80817031860352,19.13636589050293 131.13763809204102,29.57354736328125 121.70006561279297,23.345233917236328 112.26235580444336,29.57354736328125 115.59195709228516,19.13636589050293 106.42963790893555,12.548440933227539 117.92488861083984,12.326364517211914 121.70006561279297,2.0264511108398438 125.47517395019531,12.326364517211914 " r="118.526134" r2="47.410454" shape="star" stroke="#ff7f00" stroke-width="null" strokeWidth="null" strokecolor="none"/>
  <polygon cx="599.5" cy="486.5" fill="#ffffff" id="svg_23" orient="point" point="5" points="155.8000602722168,2.026449203491211 159.57517623901367,12.326362609863281 171.07035446166992,12.548439025878906 161.9081687927246,19.136363983154297 165.2376365661621,29.57354736328125 155.8000602722168,23.345233917236328 146.36235427856445,29.57354736328125 149.69195938110352,19.136363983154297 140.52963638305664,12.548439025878906 152.0248908996582,12.326362609863281 155.8000602722168,2.026449203491211 159.57517623901367,12.326362609863281 " r="118.526134" r2="47.410454" shape="star" stroke="#ff7f00" stroke-width="null" strokeWidth="null" strokecolor="none"/>
 </g>
</svg>